<?xml version="1.0" standalone="no"?>
<!DOCTYPE svg PUBLIC "-//W3C//DTD SVG 20010904//EN"
 "http://www.w3.org/TR/2001/REC-SVG-20010904/DTD/svg10.dtd">
<svg version="1.0" xmlns="http://www.w3.org/2000/svg"
 width="1024.000000pt" height="1024.000000pt" viewBox="0 0 1024.000000 1024.000000"
 preserveAspectRatio="xMidYMid meet">
<metadata>
Created by potrace 1.14, written by Peter Selinger 2001-2017
</metadata>
<g transform="translate(0.000000,1024.000000) scale(0.100000,-0.100000)"
fill="#000000" stroke="none">
<path d="M6223 7745 c27 -25 37 -41 32 -53 -5 -13 -3 -14 6 -5 16 15 -16 67
-50 83 -22 9 -19 5 12 -25z"/>
<path d="M6590 7584 c0 -3 9 -21 19 -38 54 -88 162 -442 192 -631 18 -111 15
-356 -6 -500 -28 -198 -126 -547 -188 -670 -11 -21 -32 -69 -47 -106 -33 -81
-150 -289 -239 -424 -223 -340 -557 -651 -926 -865 -133 -77 -456 -233 -570
-276 -288 -107 -482 -156 -785 -195 -137 -18 -451 -16 -590 4 -281 39 -532
119 -734 233 -189 106 -274 192 -315 316 -26 82 -36 138 -23 138 5 0 85 -50
178 -112 93 -61 220 -136 282 -165 242 -114 609 -193 899 -193 176 0 496 46
728 105 105 26 335 112 335 125 0 12 -48 28 -184 60 -214 50 -367 138 -531
304 -179 180 -264 328 -322 556 -63 249 -67 494 -12 731 12 52 23 106 23 121
1 14 3 25 5 22 3 -3 111 184 111 193 0 2 17 27 38 56 46 62 62 92 32 57 -12
-14 -26 -25 -31 -25 -15 0 -28 -27 -21 -43 4 -12 1 -14 -13 -9 -9 4 -24 2 -31
-4 -10 -8 -14 -8 -14 0 0 6 -11 11 -24 11 -38 0 -40 17 -3 23 17 2 35 0 39 -6
4 -7 12 -5 21 5 14 13 2 15 -106 17 -94 1 -125 5 -133 16 -6 8 -21 15 -34 15
-18 0 -21 4 -16 23 5 23 4 24 -64 24 -38 0 -68 -2 -66 -6 12 -18 116 -82 126
-76 6 4 9 3 8 -2 -2 -5 14 -24 35 -42 35 -31 51 -32 25 -1 -10 12 -9 11 4 0
14 -13 15 -23 7 -70 -14 -72 -32 -100 -67 -100 -46 0 -122 28 -178 65 -61 41
-75 44 -48 13 l19 -23 -22 19 c-13 10 -20 22 -18 26 3 5 -31 33 -74 64 -44 31
-89 65 -99 76 -18 19 -21 20 -36 5 -9 -9 -16 -19 -16 -23 0 -3 5 -1 12 6 15
15 31 16 22 0 -4 -6 -3 -8 4 -4 6 3 26 -6 44 -22 18 -16 54 -43 80 -62 56 -39
58 -53 3 -15 -25 16 -45 23 -58 19 -14 -4 -17 -3 -12 7 6 8 4 11 -7 7 -8 -4
-28 4 -44 18 -16 13 -33 23 -38 24 -13 0 -46 41 -46 57 0 9 -17 13 -64 13 -48
0 -65 4 -70 15 -3 9 -19 15 -41 15 -24 0 -35 5 -35 14 0 23 -38 30 -147 27
-93 -2 -103 -1 -120 18 -9 12 -27 21 -39 21 -18 0 -21 -5 -18 -22 2 -13 1 -16
-2 -8 -4 8 -11 21 -17 28 -8 9 -7 12 3 10 7 -2 15 3 18 11 3 8 0 11 -7 7 -7
-5 -8 -1 -4 10 4 11 8 13 11 6 7 -21 20 -13 31 19 6 17 15 28 21 24 6 -4 7 1
3 10 -5 14 -8 14 -15 3 -10 -14 -7 8 7 47 4 11 -2 5 -14 -13 -12 -18 -18 -38
-15 -44 4 -6 3 -8 -4 -5 -11 7 -75 -96 -147 -238 -141 -276 -246 -615 -285
-921 -45 -354 -11 -823 82 -1139 106 -362 339 -793 587 -1087 359 -425 814
-725 1374 -907 112 -37 184 -54 402 -100 178 -37 432 -55 600 -42 496 39 962
181 1346 412 530 318 901 715 1153 1234 143 293 213 522 266 870 31 200 38
533 16 715 -64 519 -225 926 -547 1386 -95 136 -165 218 -300 349 -167 163
-250 232 -371 311 -57 37 -115 76 -130 86 -16 11 -28 16 -28 12z m575 -772
c40 -61 95 -200 112 -282 20 -101 20 -301 -1 -415 -57 -305 -216 -725 -394
-1040 -172 -305 -361 -536 -667 -815 -261 -238 -706 -524 -1025 -659 -291
-122 -663 -231 -925 -270 -354 -52 -788 -36 -1060 38 -168 47 -329 150 -376
242 -25 50 -25 89 -1 89 11 0 90 -22 178 -49 292 -90 407 -105 769 -106 318 0
445 16 751 95 493 128 976 370 1414 708 179 139 536 526 600 652 11 21 46 77
78 122 126 182 279 541 361 848 50 189 86 444 97 695 4 83 11 158 16 168 15
29 46 20 73 -21z m-3650 -352 c3 -6 -1 -7 -9 -4 -18 7 -21 14 -7 14 6 0 13 -4
16 -10z m52 -26 c-3 -3 -12 -4 -19 -1 -8 3 -5 6 6 6 11 1 17 -2 13 -5z m354
-57 c-10 -9 -11 -8 -5 6 3 10 9 15 12 12 3 -3 0 -11 -7 -18z m-254 7 c-3 -3
-12 -4 -19 -1 -8 3 -5 6 6 6 11 1 17 -2 13 -5z m223 -44 c0 -5 -5 -10 -11 -10
-5 0 -7 5 -4 10 3 6 8 10 11 10 2 0 4 -4 4 -10z m-599 -73 c-10 -9 -11 -8 -5
6 3 10 9 15 12 12 3 -3 0 -11 -7 -18z m4321 -261 c91 -260 72 -464 -79 -836
-222 -547 -548 -994 -1048 -1435 -373 -329 -873 -616 -1360 -780 -526 -177
-1139 -251 -1381 -165 -151 52 -288 163 -248 199 5 5 54 4 109 -1 113 -11 454
-4 590 12 350 40 679 121 1005 247 246 96 681 338 906 504 102 75 349 285 430
365 315 312 590 720 776 1154 82 189 191 569 223 775 16 105 29 98 77 -39z
m-4463 -136 c57 -11 161 -25 230 -31 69 -5 130 -14 134 -18 4 -4 7 -45 5 -91
l-3 -84 -35 -9 c-98 -26 -435 27 -518 81 -52 34 -67 110 -30 149 28 29 76 30
217 3z m416 -616 c9 -25 19 -62 22 -83 l5 -37 -71 -32 c-38 -17 -114 -45 -168
-61 -54 -16 -131 -41 -172 -55 -94 -33 -156 -34 -188 -4 -13 12 -23 31 -23 42
0 30 33 80 72 109 77 58 377 165 469 166 34 1 37 -2 54 -45z m4181 -504 c-11
-249 -118 -525 -308 -793 -396 -557 -978 -1043 -1553 -1295 -206 -90 -471
-173 -667 -208 -217 -39 -566 -3 -568 58 0 9 13 12 165 43 183 37 310 70 401
103 44 16 122 43 175 61 191 61 569 242 759 362 360 228 687 505 904 764 213
255 355 461 482 697 37 68 81 148 100 178 18 30 47 88 65 129 30 67 34 71 42
50 5 -13 7 -80 3 -149z m-3908 24 c42 -50 45 -80 17 -130 -58 -99 -261 -254
-333 -254 -62 0 -96 63 -66 121 19 39 200 221 264 268 56 41 81 40 118 -5z"/>
<path d="M6352 7528 c12 -29 25 -57 30 -62 13 -16 9 -29 -7 -22 -19 7 -19 1 1
-18 21 -21 9 -39 -17 -26 -11 6 -24 8 -29 5 -6 -3 -10 -1 -10 6 0 6 8 9 20 6
19 -5 19 -4 -3 22 -14 18 -23 23 -25 14 -2 -7 -7 -11 -12 -8 -5 3 -11 1 -15
-5 -3 -5 1 -10 10 -10 9 0 13 -4 10 -10 -3 -5 -19 -10 -36 -10 -16 0 -29 -4
-29 -8 0 -9 -87 -42 -111 -42 -9 0 -24 -9 -34 -20 -11 -12 -31 -20 -50 -20
-39 0 -95 -18 -95 -31 0 -13 -28 -11 -32 3 -3 9 -6 9 -12 0 -4 -7 -2 -12 3
-12 6 0 11 -18 11 -40 0 -29 4 -40 15 -40 11 0 15 -11 15 -40 0 -29 -4 -40
-15 -40 -8 0 -15 5 -15 10 0 6 -18 10 -40 10 -22 0 -40 -4 -40 -10 0 -5 -9
-10 -20 -10 -14 0 -20 7 -20 21 0 19 -4 21 -30 16 -16 -4 -30 -2 -30 3 0 19
-73 3 -92 -21 -35 -44 -57 -96 -51 -118 4 -17 1 -24 -16 -28 -22 -6 -38 -44
-26 -62 3 -6 1 -11 -5 -11 -6 0 -8 -5 -5 -10 4 -6 1 -17 -5 -25 -10 -12 -10
-15 1 -15 10 -1 9 -3 -3 -10 -10 -7 -24 -6 -40 0 -21 10 -21 10 5 5 18 -4 26
-2 22 4 -3 6 -23 9 -45 8 -21 -1 -37 -4 -35 -5 2 -2 55 -26 117 -53 225 -98
431 -262 567 -454 103 -146 151 -268 186 -475 21 -124 34 -175 45 -164 12 13
73 208 115 369 102 387 120 719 54 980 -29 114 -100 312 -157 438 -37 79 -50
90 -20 15z m83 -227 c-3 -2 -5 1 -5 7 0 6 -7 17 -15 26 -8 8 -12 22 -9 31 5
13 10 7 20 -21 7 -21 11 -40 9 -43z m-795 -221 c-6 -12 -14 -20 -17 -17 -2 3
1 14 8 26 17 26 24 19 9 -9z m734 -6 c11 -10 16 -34 16 -68 0 -62 -17 -83 -95
-117 -51 -22 -108 -64 -180 -131 -22 -21 -46 -38 -53 -38 -23 0 -66 28 -105
68 -32 32 -38 46 -39 81 0 23 2 45 5 48 4 3 2 13 -3 23 -6 12 -5 17 5 17 8 0
12 -4 10 -8 -3 -3 1 -11 8 -17 9 -8 11 3 10 49 -3 57 -2 59 22 59 16 0 25 6
25 15 0 8 5 15 11 15 5 0 8 -4 5 -9 -8 -12 13 -18 52 -15 38 2 39 1 10 -26
-19 -17 -10 -15 47 11 133 60 217 75 249 43z"/>
<path d="M6006 7031 c-2 -3 9 -7 25 -8 16 -1 29 1 29 5 0 9 -49 12 -54 3z"/>
<path d="M6005 7000 c-3 -6 1 -7 9 -4 18 7 21 14 7 14 -6 0 -13 -4 -16 -10z"/>
<path d="M5975 6950 c-3 -6 1 -7 9 -4 18 7 21 14 7 14 -6 0 -13 -4 -16 -10z"/>
<path d="M6321 7495 c1 -19 18 -51 18 -35 0 8 -4 22 -9 30 -5 8 -9 11 -9 5z"/>
<path d="M5067 7215 c-4 -22 -6 -56 -6 -75 1 -22 5 -11 10 30 10 72 6 108 -4
45z"/>
<path d="M5700 7201 c-13 -25 -13 -31 0 -31 6 0 10 9 10 20 0 11 5 20 10 20 6
0 10 -6 10 -14 0 -7 7 -19 15 -26 23 -19 20 13 -3 33 -24 22 -29 21 -42 -2z"/>
<path d="M4965 7085 c23 -8 83 -10 79 -3 -3 4 -24 8 -47 7 -23 0 -37 -2 -32
-4z"/>
<path d="M5506 7011 c-9 -14 42 -23 65 -10 11 6 18 13 16 16 -3 3 -14 0 -23
-5 -12 -7 -25 -7 -36 -1 -10 5 -19 5 -22 0z"/>
<path d="M5512 6976 c7 -8 15 -12 17 -11 5 6 -10 25 -20 25 -5 0 -4 -6 3 -14z"/>
<path d="M3993 6920 c10 -14 27 -44 39 -67 l22 -43 -22 -46 c-12 -25 -18 -43
-13 -40 5 3 14 -1 21 -9 12 -14 26 -14 83 2 20 5 23 43 5 76 -16 31 -61 68
-68 56 -4 -5 -13 3 -21 18 -8 15 -25 38 -39 52 l-24 26 17 -25z"/>
<path d="M5128 6933 c7 -3 16 -2 19 1 4 3 -2 6 -13 5 -11 0 -14 -3 -6 -6z"/>
<path d="M2624 6749 c-3 -6 -2 -15 3 -20 5 -5 9 -1 9 11 0 23 -2 24 -12 9z"/>
<path d="M3206 6601 c-4 -5 3 -7 14 -4 23 6 26 13 6 13 -8 0 -17 -4 -20 -9z"/>
<path d="M3405 6508 c11 -6 23 -16 27 -22 5 -7 8 -8 8 0 0 15 -22 34 -39 34
-12 -1 -11 -4 4 -12z"/>
<path d="M4010 6499 c0 -5 5 -7 10 -4 6 3 10 8 10 11 0 2 -4 4 -10 4 -5 0 -10
-5 -10 -11z"/>
<path d="M3130 6445 c-7 -9 -11 -17 -9 -20 3 -2 10 5 17 15 14 24 10 26 -8 5z"/>
<path d="M3200 6360 c0 -5 5 -10 11 -10 5 0 7 5 4 10 -3 6 -8 10 -11 10 -2 0
-4 -4 -4 -10z"/>
<path d="M6103 5785 c0 -44 2 -61 4 -37 2 23 2 59 0 80 -2 20 -4 1 -4 -43z"/>
<path d="M6103 5615 c0 -22 2 -30 4 -17 2 12 2 30 0 40 -3 9 -5 -1 -4 -23z"/>
<path d="M6006 5343 c-6 -14 -5 -15 5 -6 7 7 10 15 7 18 -3 3 -9 -2 -12 -12z"/>
<path d="M6010 5310 c-8 -5 -32 -10 -52 -10 -20 0 -40 -4 -43 -10 -3 -5 -26
-10 -51 -10 -24 0 -44 -4 -44 -10 0 -5 -14 -10 -31 -10 -54 0 -109 -21 -109
-42 0 -11 -7 -18 -18 -18 -10 0 -22 -4 -27 -9 -17 -15 -130 -51 -163 -51 -18
0 -32 -4 -32 -9 0 -5 -36 -12 -80 -16 -58 -5 -80 -11 -80 -21 0 -10 -12 -14
-40 -14 -38 0 -40 -2 -40 -30 0 -17 -5 -30 -12 -30 -7 0 -78 -5 -157 -11 -99
-7 -146 -7 -151 0 -4 7 -92 8 -275 1 -149 -5 -291 -10 -317 -10 -36 0 -48 -4
-48 -15 0 -8 -5 -15 -12 -15 -9 0 -9 -3 0 -12 7 -7 12 -17 12 -23 0 -5 -5 -3
-10 5 -9 13 -11 13 -21 0 -9 -13 -10 -12 -5 3 4 12 2 17 -6 15 -22 -8 -15 -25
36 -83 154 -179 375 -300 626 -343 30 -6 90 -16 133 -23 42 -8 77 -17 77 -20
0 -27 230 83 376 179 52 34 93 64 114 84 14 12 50 42 80 64 67 50 205 185 245
240 17 21 36 43 43 47 7 5 9 13 6 19 -4 7 -2 8 4 4 13 -8 54 52 46 66 -3 5 0
7 6 6 6 -2 23 16 37 40 22 37 23 41 7 36 -16 -6 -17 -5 -6 7 13 14 16 39 5 39
-5 0 -15 -5 -23 -10z"/>
<path d="M4111 5033 c7 -12 15 -20 18 -17 3 2 -3 12 -13 22 -17 16 -18 16 -5
-5z"/>
<path d="M4146 4987 c3 -10 9 -15 12 -12 3 3 0 11 -7 18 -10 9 -11 8 -5 -6z"/>
</g>
</svg>
